<svg xmlns="http://www.w3.org/2000/svg" viewBox="0 0 762.05 344.14"><defs><style>.cls-1,.cls-2{fill:#fff;}.cls-2{font-size:98px;font-family:Poppins-Bold, Poppins;font-weight:700;}.cls-3{font-family:Poppins-Thin, Poppins;font-weight:200;}</style></defs><g id="Livello_2" data-name="Livello 2"><g id="Livello_2-2" data-name="Livello 2"><path class="cls-1" d="M101.26,163.93s6,34-11,44-34-19-34-19-9-10-18,2-23,39-23,39-5,21,19,12l15-26h2a44.19,44.19,0,0,0,33,17c22,1,33-22,33-22s12-12,6-53Z"/><path class="cls-1" d="M.26,210.25l23-26s8-3,7,7l-22,25S-1.74,219.25.26,210.25Z"/><path class="cls-1" d="M149.81,149.27s32,17,41,44,7,37,7,37,5,14,16,7l4-4s8-20,18-29c0,0,8-8,12.51-10,0,0,7.49-4,6.49-10s-3-14-17-10c0,0-19,13-21,18l-1,1s-7-22-15-30-15-17-21-21Z"/><path class="cls-1" d="M153.68,171.93s22,20,24,47c0,0,4.13,14,9.06,0,0,0-3.06-28-16.06-42l-10-11S153.68,162.93,153.68,171.93Z"/><path class="cls-1" d="M40.38,154.33a53.79,53.79,0,0,1,11.51,9.38,5.12,5.12,0,0,0,5.18,1.48l152.32-42.38a5.16,5.16,0,0,0,3.52-6.59,72.56,72.56,0,0,1-3.23-13.77,5.15,5.15,0,0,0-6.57-4.35L41.71,145A5.16,5.16,0,0,0,40.38,154.33Z"/><path class="cls-1" d="M38.73,137.45,201.27,91.19a6.14,6.14,0,0,0,4.46-5.8c.17-9.69.92-32.75,4.28-47.86a6.14,6.14,0,0,0-7.32-7.38l-191.93,43a6.15,6.15,0,0,0-4,9c6.86,12.33,20.4,37.53,24.44,51.2A6.13,6.13,0,0,0,38.73,137.45Z"/></g><g id="Livello_4" data-name="Livello 4"><path class="cls-1" d="M95.62,54c-6.05-5.37-36.23-31.84-42.37-31.23a5,5,0,0,1-1.39,0h0A4.69,4.69,0,0,0,48,31L71.53,50.8l.29.27.86.86L48,58.34a4.71,4.71,0,0,1-4.14-.9c-7.2-5.86-33-27.2-32.15-31.51,0,0-8.91-37.6,57.93-22.25a4.79,4.79,0,0,1,1.92.94l56.2,45.76a4.69,4.69,0,0,1-3.6,8.29l-26-3.54A4.72,4.72,0,0,1,95.62,54Z"/></g><g id="Livello_3" data-name="Livello 3"><text class="cls-2" transform="translate(232.5 163.49)">APP<tspan class="cls-3" x="194.53" y="0">etite</tspan></text></g></g></svg>